<svg xmlns='http://www.w3.org/2000/svg' width='1600' height='1000' viewBox='0 0 1600 1000'><defs>
  <marker id="arrow" viewBox="0 0 10 10" refX="9" refY="5" markerWidth="8" markerHeight="8" orient="auto-start-reverse"><path d="M 0 0 L 10 5 L 0 10 z" fill="#2563eb"/></marker>
  <filter id="shadow" x="-10%" y="-10%" width="120%" height="130%"><feDropShadow dx="0" dy="8" stdDeviation="10" flood-color="#0f172a" flood-opacity="0.12"/></filter>
</defs>
<style>
  .bg{fill:#f8fafc}.title{font-family:'Segoe UI',Arial,sans-serif;font-size:38px;font-weight:800;fill:#0f172a}.subtitle{font-family:'Segoe UI',Arial,sans-serif;font-size:21px;fill:#475569}.box{fill:#ffffff;stroke:#cbd5e1;stroke-width:2;rx:24;filter:url(#shadow)}.box-blue{fill:#eff6ff;stroke:#60a5fa}.box-green{fill:#ecfdf5;stroke:#34d399}.box-amber{fill:#fffbeb;stroke:#f59e0b}.box-red{fill:#fef2f2;stroke:#f87171}.box-violet{fill:#f5f3ff;stroke:#a78bfa}.box-gray{fill:#f1f5f9;stroke:#94a3b8}.label{font-family:'Segoe UI',Arial,sans-serif;font-size:24px;font-weight:750;fill:#0f172a}.small{font-family:'Segoe UI',Arial,sans-serif;font-size:18px;fill:#334155}.tiny{font-family:'Segoe UI',Arial,sans-serif;font-size:15px;fill:#475569}.mono{font-family:'Cascadia Mono','Consolas',monospace;font-size:17px;fill:#1e3a8a}.arrow{stroke:#2563eb;stroke-width:4;fill:none;marker-end:url(#arrow)}.line{stroke:#64748b;stroke-width:3;fill:none}.dash{stroke:#64748b;stroke-width:3;fill:none;stroke-dasharray:10 8}.plane{font-family:'Segoe UI',Arial,sans-serif;font-size:22px;font-weight:800;fill:#334155}.caption{font-family:'Segoe UI',Arial,sans-serif;font-size:18px;fill:#64748b}
</style><rect class='bg' width='1600' height='1000'/><text x="80" y="80" class="title">Hình 1.1. Bối cảnh hệ thống audio analytics</text><text x="80" y="118" class="subtitle">Luồng dữ liệu âm thanh thời gian gần thực trên nền tảng Private Cloud</text>
<rect x="70" y="250" width="260" height="190" class="box box-blue"/><text x="105" y="310" class="label">Nguồn dữ liệu</text><text x="105" y="350" class="small">FMA-Small audio</text><text x="105" y="382" class="small">Metadata track</text><text x="105" y="414" class="small">File MP3/WAV</text>
<rect x="440" y="210" width="320" height="270" class="box box-green"/><text x="485" y="270" class="label">Pipeline event-driven</text><text x="485" y="315" class="small">Ingestion</text><text x="485" y="350" class="small">Processing</text><text x="485" y="385" class="small">Writer</text><text x="485" y="430" class="mono">Kafka events + claim-check</text>
<rect x="870" y="215" width="280" height="250" class="box box-amber"/><text x="915" y="275" class="label">Analytics store</text><text x="915" y="318" class="small">TimescaleDB</text><text x="915" y="352" class="small">Audio features</text><text x="915" y="386" class="small">Metrics theo run</text><text x="915" y="420" class="small">Persisted truth</text>
<rect x="1260" y="145" width="250" height="160" class="box box-violet"/><text x="1300" y="205" class="label">Review</text><text x="1300" y="245" class="small">Run, track, segment</text>
<rect x="1260" y="350" width="250" height="160" class="box box-violet"/><text x="1300" y="410" class="label">Grafana</text><text x="1300" y="450" class="small">Audio Quality</text><text x="1300" y="482" class="small">System Health</text>
<rect x="1260" y="555" width="250" height="160" class="box box-violet"/><text x="1300" y="615" class="label">Dataset Exporter</text><text x="1300" y="655" class="small">CSV / Parquet</text>
<path class="arrow" d="M330 345 H440"/><path class="arrow" d="M760 345 H870"/><path class="arrow" d="M1150 340 C1200 250 1215 225 1260 225"/><path class="arrow" d="M1150 350 H1260"/><path class="arrow" d="M1150 360 C1200 520 1215 635 1260 635"/>
<rect x="420" y="620" width="780" height="140" class="box box-gray"/><text x="470" y="675" class="label">Private Cloud bounded</text><text x="470" y="718" class="small">Docker Compose / K3s, MinIO hoặc local artifacts, observability read-only</text>
<text x="80" y="930" class="caption">Nguồn: tác giả tự vẽ từ phạm vi repository event-driven-audio-analytics.</text></svg>
