<svg xmlns='http://www.w3.org/2000/svg' width='1600' height='1000' viewBox='0 0 1600 1000'><defs>
  <marker id="arrow" viewBox="0 0 10 10" refX="9" refY="5" markerWidth="8" markerHeight="8" orient="auto-start-reverse"><path d="M 0 0 L 10 5 L 0 10 z" fill="#2563eb"/></marker>
  <filter id="shadow" x="-10%" y="-10%" width="120%" height="130%"><feDropShadow dx="0" dy="8" stdDeviation="10" flood-color="#0f172a" flood-opacity="0.12"/></filter>
</defs>
<style>
  .bg{fill:#f8fafc}.title{font-family:'Segoe UI',Arial,sans-serif;font-size:38px;font-weight:800;fill:#0f172a}.subtitle{font-family:'Segoe UI',Arial,sans-serif;font-size:21px;fill:#475569}.box{fill:#ffffff;stroke:#cbd5e1;stroke-width:2;rx:24;filter:url(#shadow)}.box-blue{fill:#eff6ff;stroke:#60a5fa}.box-green{fill:#ecfdf5;stroke:#34d399}.box-amber{fill:#fffbeb;stroke:#f59e0b}.box-red{fill:#fef2f2;stroke:#f87171}.box-violet{fill:#f5f3ff;stroke:#a78bfa}.box-gray{fill:#f1f5f9;stroke:#94a3b8}.label{font-family:'Segoe UI',Arial,sans-serif;font-size:24px;font-weight:750;fill:#0f172a}.small{font-family:'Segoe UI',Arial,sans-serif;font-size:18px;fill:#334155}.tiny{font-family:'Segoe UI',Arial,sans-serif;font-size:15px;fill:#475569}.mono{font-family:'Cascadia Mono','Consolas',monospace;font-size:17px;fill:#1e3a8a}.arrow{stroke:#2563eb;stroke-width:4;fill:none;marker-end:url(#arrow)}.line{stroke:#64748b;stroke-width:3;fill:none}.dash{stroke:#64748b;stroke-width:3;fill:none;stroke-dasharray:10 8}.plane{font-family:'Segoe UI',Arial,sans-serif;font-size:22px;font-weight:800;fill:#334155}.caption{font-family:'Segoe UI',Arial,sans-serif;font-size:18px;fill:#64748b}
</style><rect class='bg' width='1600' height='1000'/><text x="80" y="80" class="title">Hình 3.3. Sequence diagram ingestion → processing → writer</text><text x="80" y="118" class="subtitle">Luồng event và artifact chính khi xử lý một audio segment</text>
<text x="130" y="185" class="label">Ingestion</text><text x="390" y="185" class="label">Kafka</text><text x="650" y="185" class="label">Artifact store</text><text x="965" y="185" class="label">Processing</text><text x="1230" y="185" class="label">Writer</text><text x="1430" y="185" class="label">TimescaleDB</text>
<line x1="180" y1="220" x2="180" y2="860" class="dash"/><line x1="430" y1="220" x2="430" y2="860" class="dash"/><line x1="735" y1="220" x2="735" y2="860" class="dash"/><line x1="1045" y1="220" x2="1045" y2="860" class="dash"/><line x1="1285" y1="220" x2="1285" y2="860" class="dash"/><line x1="1470" y1="220" x2="1470" y2="860" class="dash"/>
<path class="arrow" d="M180 280 H735"/><text x="295" y="265" class="small">ghi WAV segment + manifest</text><path class="arrow" d="M180 350 H430"/><text x="205" y="335" class="mono">audio.segment.ready</text><path class="arrow" d="M430 420 H1045"/><text x="540" y="405" class="small">consumer nhận event</text><path class="arrow" d="M1045 490 H735"/><text x="805" y="475" class="small">GET artifact_uri</text><path class="arrow" d="M735 560 H1045"/><text x="795" y="545" class="small">WAV bytes</text><path class="arrow" d="M1045 630 H430"/><text x="615" y="615" class="mono">audio.features + system.metrics</text><path class="arrow" d="M430 700 H1285"/><text x="625" y="685" class="small">writer consume</text><path class="arrow" d="M1285 770 H1470"/><text x="1308" y="755" class="small">upsert + checkpoint</text><path class="arrow" d="M1285 835 H430"/><text x="670" y="820" class="small">commit offset sau khi persist</text>
<!-- detail-v2 --><rect x="80" y="842" width="1440" height="62" class="box box-gray"/><text x="120" y="866" class="tag">Chi tiết kỹ thuật</text><text x="120" y="894" class="tiny">Thứ tự: write artifact -> publish event -> consume</text><text x="585" y="894" class="tiny">Processing: GET artifact, verify checksum, extract features</text><text x="1050" y="894" class="tiny">Writer: upsert rows rồi mới commit offset</text><!-- /detail-v2 --><text x="80" y="930" class="caption">Nguồn: tác giả tự vẽ từ repository.</text></svg>


