<svg xmlns='http://www.w3.org/2000/svg' width='1600' height='1000' viewBox='0 0 1600 1000'><defs>
  <marker id="arrow" viewBox="0 0 10 10" refX="9" refY="5" markerWidth="8" markerHeight="8" orient="auto-start-reverse"><path d="M 0 0 L 10 5 L 0 10 z" fill="#2563eb"/></marker>
  <filter id="shadow" x="-10%" y="-10%" width="120%" height="130%"><feDropShadow dx="0" dy="8" stdDeviation="10" flood-color="#0f172a" flood-opacity="0.12"/></filter>
</defs>
<style>
  .bg{fill:#f8fafc}.title{font-family:'Segoe UI',Arial,sans-serif;font-size:38px;font-weight:800;fill:#0f172a}.subtitle{font-family:'Segoe UI',Arial,sans-serif;font-size:21px;fill:#475569}.box{fill:#ffffff;stroke:#cbd5e1;stroke-width:2;rx:24;filter:url(#shadow)}.box-blue{fill:#eff6ff;stroke:#60a5fa}.box-green{fill:#ecfdf5;stroke:#34d399}.box-amber{fill:#fffbeb;stroke:#f59e0b}.box-red{fill:#fef2f2;stroke:#f87171}.box-violet{fill:#f5f3ff;stroke:#a78bfa}.box-gray{fill:#f1f5f9;stroke:#94a3b8}.label{font-family:'Segoe UI',Arial,sans-serif;font-size:24px;font-weight:750;fill:#0f172a}.small{font-family:'Segoe UI',Arial,sans-serif;font-size:18px;fill:#334155}.tiny{font-family:'Segoe UI',Arial,sans-serif;font-size:15px;fill:#475569}.mono{font-family:'Cascadia Mono','Consolas',monospace;font-size:17px;fill:#1e3a8a}.arrow{stroke:#2563eb;stroke-width:4;fill:none;marker-end:url(#arrow)}.line{stroke:#64748b;stroke-width:3;fill:none}.dash{stroke:#64748b;stroke-width:3;fill:none;stroke-dasharray:10 8}.plane{font-family:'Segoe UI',Arial,sans-serif;font-size:22px;font-weight:800;fill:#334155}.caption{font-family:'Segoe UI',Arial,sans-serif;font-size:18px;fill:#64748b}
</style><rect class='bg' width='1600' height='1000'/><text x="80" y="80" class="title">Hình 3.2. Kiến trúc tổng thể hệ thống</text><text x="80" y="118" class="subtitle">Pipeline ingestion → Kafka → processing → writer → TimescaleDB → review/Grafana/export</text>
<rect x="70" y="225" width="220" height="140" class="box box-blue"/><text x="112" y="285" class="label">FMA-Small</text><text x="112" y="325" class="small">metadata + audio</text>
<rect x="370" y="225" width="220" height="140" class="box box-green"/><text x="425" y="285" class="label">Ingestion</text><text x="407" y="325" class="small">validate + segment</text>
<rect x="680" y="160" width="220" height="140" class="box box-amber"/><text x="750" y="220" class="label">Kafka</text><text x="710" y="260" class="mono">audio.metadata</text>
<rect x="680" y="390" width="220" height="140" class="box box-amber"/><text x="750" y="450" class="label">Kafka</text><text x="700" y="490" class="mono">audio.features</text>
<rect x="990" y="225" width="220" height="140" class="box box-green"/><text x="1035" y="285" class="label">Processing</text><text x="1025" y="325" class="small">RMS, silence, log-mel</text>
<rect x="990" y="570" width="220" height="140" class="box box-green"/><text x="1060" y="630" class="label">Writer</text><text x="1028" y="670" class="small">upsert + checkpoint</text>
<rect x="680" y="680" width="220" height="140" class="box box-blue"/><text x="725" y="740" class="label">TimescaleDB</text><text x="722" y="780" class="small">persisted truth</text>
<rect x="370" y="470" width="220" height="140" class="box box-violet"/><text x="405" y="530" class="label">Artifact store</text><text x="410" y="570" class="small">local / MinIO</text>
<rect x="1290" y="180" width="220" height="115" class="box"/><text x="1346" y="250" class="label">Review</text><rect x="1290" y="350" width="220" height="115" class="box"/><text x="1335" y="420" class="label">Grafana</text><rect x="1290" y="520" width="220" height="115" class="box"/><text x="1320" y="590" class="label">Dataset Exporter</text>
<path class="arrow" d="M290 295 H370"/><path class="arrow" d="M590 265 H680"/><path class="arrow" d="M900 230 C955 230 955 295 990 295"/><path class="arrow" d="M1210 295 C1260 250 1260 238 1290 238"/><path class="arrow" d="M590 540 H990"/><path class="arrow" d="M1210 640 C1260 580 1260 578 1290 578"/><path class="arrow" d="M990 640 H900"/><path class="arrow" d="M790 680 V530"/><path class="arrow" d="M790 390 V300"/><path class="arrow" d="M590 330 V470"/><path class="arrow" d="M990 330 C850 500 740 520 590 540"/><path class="arrow" d="M900 750 C1080 750 1200 420 1290 408"/><path class="arrow" d="M900 750 C1080 760 1200 240 1290 238"/>
<!-- detail-v2 --><rect x="80" y="842" width="1440" height="62" class="box box-gray"/><text x="120" y="866" class="tag">Chi tiết kỹ thuật</text><text x="120" y="894" class="tiny">Event nhỏ: audio.metadata, segment.ready, features</text><text x="585" y="894" class="tiny">Artifact lớn: WAV segment và manifest theo claim-check</text><text x="1050" y="894" class="tiny">Persisted truth: TimescaleDB cấp dữ liệu cho UI/export</text><!-- /detail-v2 --><text x="80" y="930" class="caption">Nguồn: tác giả tự vẽ từ repository.</text></svg>


