<svg xmlns='http://www.w3.org/2000/svg' width='1600' height='1000' viewBox='0 0 1600 1000'><defs>
  <marker id="arrow" viewBox="0 0 10 10" refX="9" refY="5" markerWidth="8" markerHeight="8" orient="auto-start-reverse"><path d="M 0 0 L 10 5 L 0 10 z" fill="#2563eb"/></marker>
  <filter id="shadow" x="-10%" y="-10%" width="120%" height="130%"><feDropShadow dx="0" dy="8" stdDeviation="10" flood-color="#0f172a" flood-opacity="0.12"/></filter>
</defs>
<style>
  .bg{fill:#f8fafc}.title{font-family:'Segoe UI',Arial,sans-serif;font-size:38px;font-weight:800;fill:#0f172a}.subtitle{font-family:'Segoe UI',Arial,sans-serif;font-size:21px;fill:#475569}.box{fill:#ffffff;stroke:#cbd5e1;stroke-width:2;rx:24;filter:url(#shadow)}.box-blue{fill:#eff6ff;stroke:#60a5fa}.box-green{fill:#ecfdf5;stroke:#34d399}.box-amber{fill:#fffbeb;stroke:#f59e0b}.box-red{fill:#fef2f2;stroke:#f87171}.box-violet{fill:#f5f3ff;stroke:#a78bfa}.box-gray{fill:#f1f5f9;stroke:#94a3b8}.label{font-family:'Segoe UI',Arial,sans-serif;font-size:24px;font-weight:750;fill:#0f172a}.small{font-family:'Segoe UI',Arial,sans-serif;font-size:18px;fill:#334155}.tiny{font-family:'Segoe UI',Arial,sans-serif;font-size:15px;fill:#475569}.mono{font-family:'Cascadia Mono','Consolas',monospace;font-size:17px;fill:#1e3a8a}.arrow{stroke:#2563eb;stroke-width:4;fill:none;marker-end:url(#arrow)}.line{stroke:#64748b;stroke-width:3;fill:none}.dash{stroke:#64748b;stroke-width:3;fill:none;stroke-dasharray:10 8}.plane{font-family:'Segoe UI',Arial,sans-serif;font-size:22px;font-weight:800;fill:#334155}.caption{font-family:'Segoe UI',Arial,sans-serif;font-size:18px;fill:#64748b}
</style><rect class='bg' width='1600' height='1000'/><text x="80" y="80" class="title">Hình 3.4. Data plane và control plane của pipeline</text><text x="80" y="118" class="subtitle">Tách luồng điều phối event khỏi luồng dữ liệu nhị phân lớn</text>
<rect x="80" y="180" width="1440" height="300" class="box box-blue"/><text x="125" y="235" class="plane">Control plane: Kafka events nhỏ</text><rect x="150" y="300" width="230" height="95" class="box"/><text x="190" y="358" class="mono">audio.metadata</text><rect x="470" y="300" width="260" height="95" class="box"/><text x="505" y="358" class="mono">audio.segment.ready</text><rect x="830" y="300" width="230" height="95" class="box"/><text x="870" y="358" class="mono">audio.features</text><rect x="1150" y="300" width="230" height="95" class="box"/><text x="1195" y="358" class="mono">system.metrics</text><path class="arrow" d="M380 348 H470"/><path class="arrow" d="M730 348 H830"/><path class="arrow" d="M1060 348 H1150"/>
<rect x="80" y="560" width="1440" height="300" class="box box-green"/><text x="125" y="615" class="plane">Data plane: artifact âm thanh lớn</text><rect x="180" y="675" width="280" height="95" class="box"/><text x="220" y="733" class="small">WAV segment</text><rect x="610" y="675" width="280" height="95" class="box"/><text x="650" y="733" class="small">Manifest parquet</text><rect x="1040" y="675" width="300" height="95" class="box"/><text x="1075" y="733" class="small">MinIO / local storage</text><path class="arrow" d="M460 723 H610"/><path class="arrow" d="M890 723 H1040"/>
<path class="dash" d="M610 395 C600 500 560 590 460 675"/><path class="dash" d="M860 395 C920 510 1010 610 1040 675"/><text x="570" y="520" class="tiny">event chỉ mang URI + checksum</text><text x="80" y="930" class="caption">Nguồn: tác giả tự vẽ.</text></svg>
