<svg xmlns='http://www.w3.org/2000/svg' width='1600' height='1000' viewBox='0 0 1600 1000'><defs>
  <marker id="arrow" viewBox="0 0 10 10" refX="9" refY="5" markerWidth="8" markerHeight="8" orient="auto-start-reverse"><path d="M 0 0 L 10 5 L 0 10 z" fill="#2563eb"/></marker>
  <filter id="shadow" x="-10%" y="-10%" width="120%" height="130%"><feDropShadow dx="0" dy="8" stdDeviation="10" flood-color="#0f172a" flood-opacity="0.12"/></filter>
</defs>
<style>
  .bg{fill:#f8fafc}.title{font-family:'Segoe UI',Arial,sans-serif;font-size:38px;font-weight:800;fill:#0f172a}.subtitle{font-family:'Segoe UI',Arial,sans-serif;font-size:21px;fill:#475569}.box{fill:#ffffff;stroke:#cbd5e1;stroke-width:2;rx:24;filter:url(#shadow)}.box-blue{fill:#eff6ff;stroke:#60a5fa}.box-green{fill:#ecfdf5;stroke:#34d399}.box-amber{fill:#fffbeb;stroke:#f59e0b}.box-red{fill:#fef2f2;stroke:#f87171}.box-violet{fill:#f5f3ff;stroke:#a78bfa}.box-gray{fill:#f1f5f9;stroke:#94a3b8}.label{font-family:'Segoe UI',Arial,sans-serif;font-size:24px;font-weight:750;fill:#0f172a}.small{font-family:'Segoe UI',Arial,sans-serif;font-size:18px;fill:#334155}.tiny{font-family:'Segoe UI',Arial,sans-serif;font-size:15px;fill:#475569}.mono{font-family:'Cascadia Mono','Consolas',monospace;font-size:17px;fill:#1e3a8a}.arrow{stroke:#2563eb;stroke-width:4;fill:none;marker-end:url(#arrow)}.line{stroke:#64748b;stroke-width:3;fill:none}.dash{stroke:#64748b;stroke-width:3;fill:none;stroke-dasharray:10 8}.plane{font-family:'Segoe UI',Arial,sans-serif;font-size:22px;font-weight:800;fill:#334155}.caption{font-family:'Segoe UI',Arial,sans-serif;font-size:18px;fill:#64748b}
</style><rect class='bg' width='1600' height='1000'/><text x="80" y="80" class="title">Hình 2.3. Claim-Check Pattern cho payload âm thanh</text><text x="80" y="118" class="subtitle">Kafka chỉ giữ event nhỏ; WAV/manifest lớn nằm trong artifact storage</text>
<rect x="90" y="240" width="270" height="170" class="box box-blue"/><text x="130" y="300" class="label">Ingestion</text><text x="130" y="342" class="small">Decode, resample</text><text x="130" y="374" class="small">Segment WAV</text>
<rect x="520" y="160" width="360" height="190" class="box box-amber"/><text x="560" y="220" class="label">Artifact storage</text><text x="560" y="262" class="small">Local / MinIO</text><text x="560" y="302" class="mono">segment.wav</text><text x="560" y="332" class="mono">manifest.parquet</text>
<rect x="520" y="490" width="360" height="190" class="box box-green"/><text x="560" y="550" class="label">Kafka event nhỏ</text><text x="560" y="592" class="mono">artifact_uri</text><text x="560" y="622" class="mono">checksum</text><text x="560" y="652" class="mono">track_id, run_id</text>
<rect x="1050" y="240" width="310" height="170" class="box box-blue"/><text x="1090" y="300" class="label">Processing</text><text x="1090" y="342" class="small">GET artifact_uri</text><text x="1090" y="374" class="small">Verify checksum</text>
<path class="arrow" d="M360 290 H520"/><path class="arrow" d="M360 360 C430 500 455 585 520 585"/><path class="arrow" d="M880 585 C980 520 1015 395 1050 350"/><path class="arrow" d="M880 255 H1050"/><text x="455" y="115" class="tiny">Data plane: payload âm thanh lớn</text><text x="455" y="735" class="tiny">Control plane: event metadata nhỏ</text><text x="80" y="930" class="caption">Nguồn: tác giả tự vẽ.</text></svg>
