<svg xmlns='http://www.w3.org/2000/svg' width='1600' height='1000' viewBox='0 0 1600 1000'><defs>
  <marker id="arrow" viewBox="0 0 10 10" refX="9" refY="5" markerWidth="8" markerHeight="8" orient="auto-start-reverse"><path d="M 0 0 L 10 5 L 0 10 z" fill="#2563eb"/></marker>
  <filter id="shadow" x="-10%" y="-10%" width="120%" height="130%"><feDropShadow dx="0" dy="8" stdDeviation="10" flood-color="#0f172a" flood-opacity="0.12"/></filter>
</defs>
<style>
  .bg{fill:#f8fafc}.title{font-family:'Segoe UI',Arial,sans-serif;font-size:38px;font-weight:800;fill:#0f172a}.subtitle{font-family:'Segoe UI',Arial,sans-serif;font-size:21px;fill:#475569}.box{fill:#ffffff;stroke:#cbd5e1;stroke-width:2;rx:24;filter:url(#shadow)}.box-blue{fill:#eff6ff;stroke:#60a5fa}.box-green{fill:#ecfdf5;stroke:#34d399}.box-amber{fill:#fffbeb;stroke:#f59e0b}.box-red{fill:#fef2f2;stroke:#f87171}.box-violet{fill:#f5f3ff;stroke:#a78bfa}.box-gray{fill:#f1f5f9;stroke:#94a3b8}.label{font-family:'Segoe UI',Arial,sans-serif;font-size:24px;font-weight:750;fill:#0f172a}.small{font-family:'Segoe UI',Arial,sans-serif;font-size:18px;fill:#334155}.tiny{font-family:'Segoe UI',Arial,sans-serif;font-size:15px;fill:#475569}.mono{font-family:'Cascadia Mono','Consolas',monospace;font-size:17px;fill:#1e3a8a}.arrow{stroke:#2563eb;stroke-width:4;fill:none;marker-end:url(#arrow)}.line{stroke:#64748b;stroke-width:3;fill:none}.dash{stroke:#64748b;stroke-width:3;fill:none;stroke-dasharray:10 8}.plane{font-family:'Segoe UI',Arial,sans-serif;font-size:22px;font-weight:800;fill:#334155}.caption{font-family:'Segoe UI',Arial,sans-serif;font-size:18px;fill:#64748b}
</style><rect class='bg' width='1600' height='1000'/><text x="80" y="80" class="title">Hình 4.1. Kiến trúc triển khai Docker Compose</text><text x="80" y="118" class="subtitle">Các service chạy trong một Docker network với volume cho dữ liệu bền vững</text>
<rect x="80" y="170" width="1440" height="690" class="box box-gray"/><text x="125" y="225" class="label">Docker Compose network</text>
<rect x="140" y="300" width="190" height="110" class="box box-blue"/><text x="190" y="365" class="small">ingestion</text><rect x="420" y="300" width="190" height="110" class="box box-amber"/><text x="475" y="365" class="small">kafka</text><rect x="700" y="300" width="190" height="110" class="box box-blue"/><text x="750" y="365" class="small">processing</text><rect x="980" y="300" width="190" height="110" class="box box-blue"/><text x="1045" y="365" class="small">writer</text><rect x="1260" y="300" width="190" height="110" class="box box-green"/><text x="1305" y="365" class="small">timescaledb</text>
<rect x="420" y="560" width="190" height="110" class="box box-violet"/><text x="478" y="625" class="small">minio</text><rect x="700" y="560" width="190" height="110" class="box"/><text x="755" y="625" class="small">review</text><rect x="980" y="560" width="190" height="110" class="box"/><text x="1032" y="625" class="small">grafana</text><rect x="1260" y="560" width="190" height="110" class="box"/><text x="1285" y="625" class="small">dataset-exporter</text>
<path class="arrow" d="M330 355 H420"/><path class="arrow" d="M610 355 H700"/><path class="arrow" d="M890 355 H980"/><path class="arrow" d="M1170 355 H1260"/><path class="arrow" d="M1260 615 H1170"/><path class="arrow" d="M1260 615 H1170"/><path class="arrow" d="M1260 615 C1110 750 850 750 795 670"/><path class="arrow" d="M1260 615 C1230 700 1190 710 1090 670"/><path class="arrow" d="M140 410 C240 540 330 615 420 615"/>
<rect x="210" y="735" width="1180" height="80" class="box box-gray"/><text x="245" y="785" class="small">Volumes: TimescaleDB data, MinIO data, artifacts/shared evidence; ports: Review 8080, Grafana 3000</text>
<!-- detail-v2 --><rect x="80" y="842" width="1440" height="62" class="box box-gray"/><text x="120" y="866" class="tag">Chi tiết kỹ thuật</text><text x="120" y="894" class="tiny">Runtime local: Docker network nội bộ</text><text x="585" y="894" class="tiny">Volumes: TimescaleDB, MinIO, artifacts/evidence</text><text x="1050" y="894" class="tiny">Ports demo: Review 8080, Grafana 3000</text><!-- /detail-v2 --><text x="80" y="930" class="caption">Nguồn: tác giả tự tổng hợp từ docker-compose.yml.</text></svg>


