<svg xmlns='http://www.w3.org/2000/svg' width='1600' height='1000' viewBox='0 0 1600 1000'><defs>
  <marker id="arrow" viewBox="0 0 10 10" refX="9" refY="5" markerWidth="8" markerHeight="8" orient="auto-start-reverse"><path d="M 0 0 L 10 5 L 0 10 z" fill="#2563eb"/></marker>
  <filter id="shadow" x="-10%" y="-10%" width="120%" height="130%"><feDropShadow dx="0" dy="8" stdDeviation="10" flood-color="#0f172a" flood-opacity="0.12"/></filter>
</defs>
<style>
  .bg{fill:#f8fafc}.title{font-family:'Segoe UI',Arial,sans-serif;font-size:38px;font-weight:800;fill:#0f172a}.subtitle{font-family:'Segoe UI',Arial,sans-serif;font-size:21px;fill:#475569}.box{fill:#ffffff;stroke:#cbd5e1;stroke-width:2;rx:24;filter:url(#shadow)}.box-blue{fill:#eff6ff;stroke:#60a5fa}.box-green{fill:#ecfdf5;stroke:#34d399}.box-amber{fill:#fffbeb;stroke:#f59e0b}.box-red{fill:#fef2f2;stroke:#f87171}.box-violet{fill:#f5f3ff;stroke:#a78bfa}.box-gray{fill:#f1f5f9;stroke:#94a3b8}.label{font-family:'Segoe UI',Arial,sans-serif;font-size:24px;font-weight:750;fill:#0f172a}.small{font-family:'Segoe UI',Arial,sans-serif;font-size:18px;fill:#334155}.tiny{font-family:'Segoe UI',Arial,sans-serif;font-size:15px;fill:#475569}.mono{font-family:'Cascadia Mono','Consolas',monospace;font-size:17px;fill:#1e3a8a}.arrow{stroke:#2563eb;stroke-width:4;fill:none;marker-end:url(#arrow)}.line{stroke:#64748b;stroke-width:3;fill:none}.dash{stroke:#64748b;stroke-width:3;fill:none;stroke-dasharray:10 8}.plane{font-family:'Segoe UI',Arial,sans-serif;font-size:22px;font-weight:800;fill:#334155}.caption{font-family:'Segoe UI',Arial,sans-serif;font-size:18px;fill:#64748b}
</style><rect class='bg' width='1600' height='1000'/><text x="80" y="80" class="title">Hình 4.2. Ánh xạ Docker Compose sang K3s runtime primitives</text><text x="80" y="118" class="subtitle">Private Cloud bounded: Deployment, StatefulSet, Job, PVC, ConfigMap và Secret</text>
<rect x="80" y="170" width="1440" height="700" class="box box-gray"/><text x="125" y="225" class="label">Namespace: fma-small-analytics</text>
<rect x="140" y="300" width="250" height="130" class="box box-blue"/><text x="178" y="350" class="label">Deployments</text><text x="178" y="390" class="small">processing, writer</text><text x="178" y="420" class="small">review, grafana</text>
<rect x="500" y="300" width="250" height="130" class="box box-green"/><text x="535" y="350" class="label">Stateful services</text><text x="535" y="390" class="small">Kafka/KRaft</text><text x="535" y="420" class="small">TimescaleDB, MinIO</text>
<rect x="860" y="300" width="250" height="130" class="box box-amber"/><text x="905" y="350" class="label">Jobs</text><text x="905" y="390" class="small">topic-bootstrap</text><text x="905" y="420" class="small">bucket-init, ingestion</text>
<rect x="1220" y="300" width="250" height="130" class="box box-violet"/><text x="1260" y="350" class="label">Config</text><text x="1260" y="390" class="small">ConfigMap</text><text x="1260" y="420" class="small">Secret</text>
<rect x="340" y="590" width="280" height="130" class="box"/><text x="385" y="640" class="label">PVC</text><text x="385" y="680" class="small">database + object data</text><rect x="760" y="590" width="280" height="130" class="box"/><text x="805" y="640" class="label">Services</text><text x="805" y="680" class="small">ClusterIP + port-forward</text><rect x="1180" y="590" width="280" height="130" class="box"/><text x="1225" y="640" class="label">Read-only UI</text><text x="1225" y="680" class="small">Review + Grafana</text>
<path class="arrow" d="M390 365 H500"/><path class="arrow" d="M750 365 H860"/><path class="arrow" d="M1110 365 H1220"/><path class="arrow" d="M625 430 C600 520 530 560 480 590"/><path class="arrow" d="M985 430 C960 520 920 560 900 590"/><path class="arrow" d="M1345 430 V590"/>
<!-- detail-v2 --><rect x="80" y="842" width="1440" height="62" class="box box-gray"/><text x="120" y="866" class="tag">Chi tiết kỹ thuật</text><text x="120" y="894" class="tiny">K3s mapping: Deployment, StatefulSet, Job</text><text x="585" y="894" class="tiny">State: PVC cho DB/object data; ConfigMap/Secret cho cấu hình</text><text x="1050" y="894" class="tiny">Bounded private cloud, không claim HA/DR production</text><!-- /detail-v2 --><text x="80" y="930" class="caption">Nguồn: tác giả tự tổng hợp từ manifests K3s.</text></svg>


