<svg xmlns='http://www.w3.org/2000/svg' width='1600' height='1000' viewBox='0 0 1600 1000'><defs>
  <marker id="arrow" viewBox="0 0 10 10" refX="9" refY="5" markerWidth="8" markerHeight="8" orient="auto-start-reverse"><path d="M 0 0 L 10 5 L 0 10 z" fill="#2563eb"/></marker>
  <filter id="shadow" x="-10%" y="-10%" width="120%" height="130%"><feDropShadow dx="0" dy="8" stdDeviation="10" flood-color="#0f172a" flood-opacity="0.12"/></filter>
</defs>
<style>
  .bg{fill:#f8fafc}.title{font-family:'Segoe UI',Arial,sans-serif;font-size:38px;font-weight:800;fill:#0f172a}.subtitle{font-family:'Segoe UI',Arial,sans-serif;font-size:21px;fill:#475569}.box{fill:#ffffff;stroke:#cbd5e1;stroke-width:2;rx:24;filter:url(#shadow)}.box-blue{fill:#eff6ff;stroke:#60a5fa}.box-green{fill:#ecfdf5;stroke:#34d399}.box-amber{fill:#fffbeb;stroke:#f59e0b}.box-red{fill:#fef2f2;stroke:#f87171}.box-violet{fill:#f5f3ff;stroke:#a78bfa}.box-gray{fill:#f1f5f9;stroke:#94a3b8}.label{font-family:'Segoe UI',Arial,sans-serif;font-size:24px;font-weight:750;fill:#0f172a}.small{font-family:'Segoe UI',Arial,sans-serif;font-size:18px;fill:#334155}.tiny{font-family:'Segoe UI',Arial,sans-serif;font-size:15px;fill:#475569}.mono{font-family:'Cascadia Mono','Consolas',monospace;font-size:17px;fill:#1e3a8a}.arrow{stroke:#2563eb;stroke-width:4;fill:none;marker-end:url(#arrow)}.line{stroke:#64748b;stroke-width:3;fill:none}.dash{stroke:#64748b;stroke-width:3;fill:none;stroke-dasharray:10 8}.plane{font-family:'Segoe UI',Arial,sans-serif;font-size:22px;font-weight:800;fill:#334155}.caption{font-family:'Segoe UI',Arial,sans-serif;font-size:18px;fill:#64748b}
</style><rect class='bg' width='1600' height='1000'/><text x="80" y="80" class="title">Hình 3.5. ERD TimescaleDB</text><text x="80" y="118" class="subtitle">Các bảng persisted truth chính cho metadata, features, metrics và checkpoint</text>
<rect x="90" y="205" width="320" height="230" class="box box-blue"/><text x="130" y="260" class="label">track_metadata</text><text x="130" y="305" class="mono">PK: run_id, track_id</text><text x="130" y="340" class="small">artist_id, genre</text><text x="130" y="372" class="small">duration_s</text><text x="130" y="404" class="small">validation_status</text>
<rect x="600" y="180" width="350" height="285" class="box box-green"/><text x="640" y="235" class="label">audio_features</text><text x="640" y="280" class="mono">PK: run_id, track_id, segment_idx</text><text x="640" y="315" class="small">ts, rms, silent_flag</text><text x="640" y="347" class="small">processing_ms</text><text x="640" y="379" class="small">checksum</text><text x="640" y="411" class="small">manifest_uri</text>
<rect x="1130" y="205" width="350" height="230" class="box box-amber"/><text x="1170" y="260" class="label">system_metrics</text><text x="1170" y="305" class="mono">PK: run_id, service, metric, ts</text><text x="1170" y="340" class="small">labels_hash</text><text x="1170" y="372" class="small">value</text><text x="1170" y="404" class="small">topic / service_name</text>
<rect x="330" y="610" width="360" height="220" class="box box-violet"/><text x="370" y="665" class="label">writer_checkpoints</text><text x="370" y="705" class="mono">consumer_group, topic</text><text x="370" y="738" class="mono">partition</text><text x="370" y="772" class="small">committed_offset</text><text x="370" y="804" class="small">updated_at</text>
<rect x="880" y="610" width="360" height="220" class="box box-gray"/><text x="920" y="665" class="label">dashboard views</text><text x="920" y="710" class="mono">vw_dashboard_run_summary</text><text x="920" y="745" class="mono">vw_dashboard_metric_events</text><text x="920" y="777" class="small">read-only evidence</text>
<path class="line" d="M410 320 H600"/><text x="455" y="300" class="tiny">1 → N</text><path class="line" d="M950 320 H1130"/><text x="1005" y="300" class="tiny">run_id</text><path class="arrow" d="M775 465 C820 555 910 590 960 610"/><path class="arrow" d="M1305 435 C1270 530 1180 590 1120 610"/><path class="arrow" d="M640 610 C590 540 540 480 410 390"/>
<text x="80" y="930" class="caption">Nguồn: tác giả tự vẽ từ SQL schema.</text></svg>

