<svg xmlns='http://www.w3.org/2000/svg' width='1600' height='1000' viewBox='0 0 1600 1000'><defs>
  <marker id="arrow" viewBox="0 0 10 10" refX="9" refY="5" markerWidth="8" markerHeight="8" orient="auto-start-reverse"><path d="M 0 0 L 10 5 L 0 10 z" fill="#2563eb"/></marker>
  <filter id="shadow" x="-10%" y="-10%" width="120%" height="130%"><feDropShadow dx="0" dy="8" stdDeviation="10" flood-color="#0f172a" flood-opacity="0.12"/></filter>
</defs>
<style>
  .bg{fill:#f8fafc}.title{font-family:'Segoe UI',Arial,sans-serif;font-size:38px;font-weight:800;fill:#0f172a}.subtitle{font-family:'Segoe UI',Arial,sans-serif;font-size:21px;fill:#475569}.box{fill:#ffffff;stroke:#cbd5e1;stroke-width:2;rx:24;filter:url(#shadow)}.box-blue{fill:#eff6ff;stroke:#60a5fa}.box-green{fill:#ecfdf5;stroke:#34d399}.box-amber{fill:#fffbeb;stroke:#f59e0b}.box-red{fill:#fef2f2;stroke:#f87171}.box-violet{fill:#f5f3ff;stroke:#a78bfa}.box-gray{fill:#f1f5f9;stroke:#94a3b8}.label{font-family:'Segoe UI',Arial,sans-serif;font-size:24px;font-weight:750;fill:#0f172a}.small{font-family:'Segoe UI',Arial,sans-serif;font-size:18px;fill:#334155}.tiny{font-family:'Segoe UI',Arial,sans-serif;font-size:15px;fill:#475569}.mono{font-family:'Cascadia Mono','Consolas',monospace;font-size:17px;fill:#1e3a8a}.arrow{stroke:#2563eb;stroke-width:4;fill:none;marker-end:url(#arrow)}.line{stroke:#64748b;stroke-width:3;fill:none}.dash{stroke:#64748b;stroke-width:3;fill:none;stroke-dasharray:10 8}.plane{font-family:'Segoe UI',Arial,sans-serif;font-size:22px;font-weight:800;fill:#334155}.caption{font-family:'Segoe UI',Arial,sans-serif;font-size:18px;fill:#64748b}
</style><rect class='bg' width='1600' height='1000'/><text x="80" y="80" class="title">Hình 3.1. Use case tổng quát</text><text x="80" y="118" class="subtitle">Các tác nhân chính tương tác với hệ thống audio analytics</text>
<rect x="430" y="160" width="760" height="680" class="box box-gray"/><text x="715" y="220" class="label">Hệ thống audio analytics</text>
<circle cx="185" cy="300" r="35" fill="#dbeafe" stroke="#2563eb"/><line x1="185" y1="335" x2="185" y2="430" class="line"/><line x1="135" y1="370" x2="235" y2="370" class="line"/><line x1="185" y1="430" x2="145" y2="510" class="line"/><line x1="185" y1="430" x2="225" y2="510" class="line"/><text x="95" y="560" class="label">Người vận hành</text>
<circle cx="1400" cy="300" r="35" fill="#dcfce7" stroke="#16a34a"/><line x1="1400" y1="335" x2="1400" y2="430" class="line"/><line x1="1350" y1="370" x2="1450" y2="370" class="line"/><line x1="1400" y1="430" x2="1360" y2="510" class="line"/><line x1="1400" y1="430" x2="1440" y2="510" class="line"/><text x="1335" y="560" class="label">Data user</text>
<ellipse cx="650" cy="325" rx="170" ry="55" class="box box-blue"/><text x="550" y="334" class="small">Chạy ingestion run</text><ellipse cx="950" cy="325" rx="170" ry="55" class="box box-green"/><text x="855" y="334" class="small">Review run/track</text><ellipse cx="650" cy="500" rx="170" ry="55" class="box box-amber"/><text x="555" y="509" class="small">Quan sát Grafana</text><ellipse cx="950" cy="500" rx="170" ry="55" class="box box-violet"/><text x="850" y="509" class="small">Export dataset</text><ellipse cx="800" cy="675" rx="205" ry="55" class="box"/><text x="670" y="684" class="small">Kiểm tra replay/idempotency</text>
<path class="line" d="M245 365 C350 325 410 320 480 325"/><path class="line" d="M245 430 C350 500 410 500 480 500"/><path class="line" d="M245 500 C400 660 520 675 595 675"/><path class="line" d="M1350 380 C1250 325 1180 325 1120 325"/><path class="line" d="M1350 465 C1240 500 1180 500 1120 500"/>
<text x="80" y="930" class="caption">Nguồn: tác giả tự vẽ.</text></svg>
