<svg xmlns='http://www.w3.org/2000/svg' width='1600' height='1000' viewBox='0 0 1600 1000'><defs>
  <marker id="arrow" viewBox="0 0 10 10" refX="9" refY="5" markerWidth="8" markerHeight="8" orient="auto-start-reverse"><path d="M 0 0 L 10 5 L 0 10 z" fill="#2563eb"/></marker>
  <filter id="shadow" x="-10%" y="-10%" width="120%" height="130%"><feDropShadow dx="0" dy="8" stdDeviation="10" flood-color="#0f172a" flood-opacity="0.12"/></filter>
</defs>
<style>
  .bg{fill:#f8fafc}.title{font-family:'Segoe UI',Arial,sans-serif;font-size:38px;font-weight:800;fill:#0f172a}.subtitle{font-family:'Segoe UI',Arial,sans-serif;font-size:21px;fill:#475569}.box{fill:#ffffff;stroke:#cbd5e1;stroke-width:2;rx:24;filter:url(#shadow)}.box-blue{fill:#eff6ff;stroke:#60a5fa}.box-green{fill:#ecfdf5;stroke:#34d399}.box-amber{fill:#fffbeb;stroke:#f59e0b}.box-red{fill:#fef2f2;stroke:#f87171}.box-violet{fill:#f5f3ff;stroke:#a78bfa}.box-gray{fill:#f1f5f9;stroke:#94a3b8}.label{font-family:'Segoe UI',Arial,sans-serif;font-size:24px;font-weight:750;fill:#0f172a}.small{font-family:'Segoe UI',Arial,sans-serif;font-size:18px;fill:#334155}.tiny{font-family:'Segoe UI',Arial,sans-serif;font-size:15px;fill:#475569}.mono{font-family:'Cascadia Mono','Consolas',monospace;font-size:17px;fill:#1e3a8a}.arrow{stroke:#2563eb;stroke-width:4;fill:none;marker-end:url(#arrow)}.line{stroke:#64748b;stroke-width:3;fill:none}.dash{stroke:#64748b;stroke-width:3;fill:none;stroke-dasharray:10 8}.plane{font-family:'Segoe UI',Arial,sans-serif;font-size:22px;font-weight:800;fill:#334155}.caption{font-family:'Segoe UI',Arial,sans-serif;font-size:18px;fill:#64748b}
</style><rect class='bg' width='1600' height='1000'/><text x="80" y="80" class="title">Hình 2.4. Quy trình waveform → STFT → Mel → Log-Mel</text><text x="80" y="118" class="subtitle">Các bước biến đổi tín hiệu âm thanh thành đặc trưng phổ dùng cho analytics/AI</text>
<rect x="90" y="250" width="270" height="200" class="box box-blue"/><text x="130" y="310" class="label">Waveform</text><polyline points="125,380 150,340 175,405 200,330 225,390 250,350 275,405 310,345" stroke="#2563eb" stroke-width="5" fill="none"/><text x="130" y="420" class="small">Tín hiệu theo thời gian</text>
<rect x="460" y="250" width="270" height="200" class="box box-green"/><text x="500" y="310" class="label">STFT</text><rect x="510" y="340" width="150" height="70" fill="#bfdbfe" stroke="#2563eb"/><line x1="535" y1="340" x2="535" y2="410" class="line"/><line x1="570" y1="340" x2="570" y2="410" class="line"/><line x1="605" y1="340" x2="605" y2="410" class="line"/><text x="500" y="430" class="small">Time-frequency bins</text>
<rect x="830" y="250" width="270" height="200" class="box box-amber"/><text x="870" y="310" class="label">Mel filter bank</text><path d="M875 405 L910 345 L945 405 M930 405 L970 330 L1010 405 M990 405 L1035 355 L1080 405" stroke="#f59e0b" stroke-width="5" fill="none"/><text x="870" y="430" class="small">Thang tần số Mel</text>
<rect x="1200" y="250" width="270" height="200" class="box box-violet"/><text x="1240" y="310" class="label">Log-Mel</text><rect x="1250" y="345" width="145" height="75" fill="#ddd6fe" stroke="#7c3aed"/><rect x="1250" y="345" width="35" height="75" fill="#c4b5fd"/><rect x="1285" y="345" width="35" height="75" fill="#a78bfa"/><rect x="1320" y="345" width="35" height="75" fill="#8b5cf6"/><text x="1240" y="440" class="small">Nén dải động</text>
<path class="arrow" d="M360 350 H460"/><path class="arrow" d="M730 350 H830"/><path class="arrow" d="M1100 350 H1200"/><!-- detail-v2 --><rect x="80" y="842" width="1440" height="62" class="box box-gray"/><text x="120" y="866" class="tag">Chi tiết kỹ thuật</text><text x="120" y="894" class="tiny">Waveform: mono 32 kHz sau decode/resample</text><text x="585" y="894" class="tiny">STFT/Mel: chuyển sang miền thời gian-tần số</text><text x="1050" y="894" class="tiny">Log-Mel: nén dải động, phục vụ analytics/AI</text><!-- /detail-v2 --><text x="80" y="930" class="caption">Nguồn: tác giả tự vẽ dựa trên torchaudio và lý thuyết DSP.</text></svg>


